<?xml version="1.0" encoding="UTF-8"?>
<svg id="Camada_1" data-name="Camada 1" xmlns="http://www.w3.org/2000/svg" viewBox="0 0 2000 2000">
  <defs>
    <style>
      .cls-1 {
        fill: #2e2e2e;
      }
    </style>
  </defs>
  <g>
    <path class="cls-1" d="M1957.77,1863.75c-114.97-29.23-234.4-37.99-350.54-62.09,40.3-28.84,71.81-63.92,95.12-102.78,67.44-112.46,65.95-256.59,8.58-372.72-46.51-94.17-129.75-169.94-242.75-195.51l-22.21-219.52-36.89-6.67c-1.17-5.19.92-3.52,2.84-4.85,53.88-37.17,115.08-68.83,171.17-103.11,28.51-17.43,54.17-38.92,85.07-52.26l4.42-.05c9.35,7.32,24.03,12.05,38.35,12.57,12.27.44,24.28-2.22,32.42-9.04,6.96-5.82,14.29-26.18,19.98-27.95,2.83-.48,5.69-.48,8.57-.22,8.47.73,17.09,3.74,25.23,3.56,40.03-.84,89.57-53.87,110.16-85.82,8.27-12.85,15.07-23.59,10.21-39.86-28.15,63.69-94.25,66.37-145.6,32.03-4.21-2.81-8.32-5.86-12.29-9.16-14.33-11.88-31.5-29.73-48.68-50.13-33.31-39.5-66.7-88.53-79.8-121.88-27.56-70.17-48.12-147.66-26.17-222.26l28.37-53.26c-85.84,34.42-96.81,154.48-72.41,232.48,6.83,24.01,39.42,72.99,16.01,93.28-8.13,7.05-36.67,10.35-45.8,1.86-5.14-4.8-19.93-46.63-22.49-55.89-7.72-27.81-12.15-72.08-10.25-100.77,1.31-19.9,9.47-40,7.6-59.9-41.69,45.77-35.09,123.78-26.62,181.24,2.14,11.47,12.57,35.44,12.38,44.33-.05,1.88-.33,3.19-1.99,4.27-165.86,54.54-324.65,152.27-489.3,214.02l-65.98,36.3c12.3,22.18,29.5,52.37,17.35,77.3l-28.34-48.91c-23.79-31.05-76.93-55.76-114.44-38.38-9.74,4.52,4.91,6.02,9.3,8.54,26.7,15.3,46.49,40.21,57.34,68.94,4.21,11.18,12.41,25.78-4.38,29.44-14.63-41.24-36.36-92.45-87.1-93.62,38.42,28.43,62.48,58.07,65.3,107.8,4.36,77.04-72.31,169.3-126.64,72.22-18.82-33.63-20.78-81.41-6.16-116.87-17.26,4.16-33.97,9.69-50.63,15.77-54.09,19.73-125.42,48.24-176.36,74.03-5.14,2.59-10.13,12.22-17.02,7.24-28.56-77.79,14.48-155.96,52.35-222.29-15.94-9.79-31.03,3.06-40.08,16.49-26.86,39.88-54.92,111.88-57.93,159.82-3.19,50.52,10.97,96.19,20.7,144.97,1.88,9.36,9.72,18.04,2.13,28.12-9.49,12.6-29.64-1.33-36.75-10.91-30.36-40.86-32.48-125.87-24.57-174.57,7.71-47.38,26.81-91.6,47.29-134.51l-10.41.47c-56.07,64.92-77.07,149.38-74.58,233.72,1.17,15.84,7.11,22.15-.98,40.21-9.43,21.01-39.5,24.78-48.54.61-8.47-22.62-2.36-78.52,2.74-103.03,5.16-24.79,16.88-56.07,27.59-79.11,3.89-8.36,11.74-17.79,11.68-25.34-54.13,53.71-79.01,123.9-83.41,199.23-.23,4.19,2.27,8.8,1.63,15.01-.38,3.67-4.42,14.73-6.64,17.43-4.14,5.05-10.99,4.53-16.16,7.78-4.58,2.88-13.65,9.54-17.34,13.15-9.3,9.13-29.84,47.82-44.72,29.45-16.37-20.21,5.63-56.18,19.67-72.99-3-2.75-16.45,14.71-18.35,17.55-53.9,90.43,29.26,201.08,126.15,132.72,19.38,26.75,42.77,54.95,77.32,59.92,86.37-102.33,168.77-207.99,248.19-315.82l49.84-3.05,4.72,35.53c-1.44,4.66-42.58,2.85-47.04,9.86l-388.38,497.89-48.07,9.64c8.52,15.16,70.55,6.07,74.07,38.03,1.63,14.05-.91,31.11-.03,45.76,1.39,22.89,3.91,44.49,4.56,67.3.16,5.13,5.33,18.37-.09,22.15l-68.7,3.11c-22.81-3.64-46.33-1.55-69.08-7.11-9.74-2.39-16.63-2.99-18.95-13.73-7.02-32.62-2.2-67.39-2.27-99.91-.02-7.77,1.83-16.13,4.02-25.12-1.22-1.38-24.35.94-25.16,2.4-1.19,2.11-2.81,14.19-4,24.76-.77,6.86,5.6,15.03,5.48,17.48-1.56,30.94,4.52,60.36,6.96,91,5.74,11.97,8.07,17.56,17.2,19.85,2.16.55,4.31,1.16,6.39,2,2.38.97,4.16,4.16,5.53,8.74,5.16,17.15,11.68,49.09,15.04,60.27,1.03,3.42,3.06,6.82,5.14,10.11,5.75,9.13,11.96,17.62-1.03,24.42-5.6,2.92-11.54,2.33-17.24,4.52-24.34,9.38-8.39,31.3,9.04,36.91l515.6,94.07c93.48,61.22,200.22,99.92,313.77,80.4h23.9l352.73,37.14,10.36-.72c191.64-46.33,388.41-73.96,579.58-121.52,3.75-1.23,8.36-2.42,11.43-4.91.94-.77,6.5-7.5,2.86-9.1ZM1573.64,1601.32c-1.34,20.37-11.24,38.24-18.7,56.64l-56.81-68.47c-4.5-6.69,1.19-16.54,9.47-13.9l66.03,25.73ZM1514.63,1468.4l56.7-39.08c5.82,9.9,15.05,88.03,11.93,91.43l-65.41-23.2-3.22-29.15ZM1490.74,1292.14c5.86.31,41.96,49.38,46.54,58.07l-35.66,44.19c-8.99-6.27-4.5-17.65-5.46-27.15-2.33-22.92-6.44-46.12-7.18-69.13-.03-1.03-2.24-6.19,1.75-5.99ZM1281.11,1669.93l-.52,1.09c-1.14.83-2.55.31-4.1-1.09-5.99-5.35-13.91-23.56-14.85-26.75-2.52-8.63-3.53-35.53,6.97-37.52,12.6-2.38,31.33,1.99,44.63-4.33l-32.14,68.59ZM418.42,1730.92s.02-.02.03-.03c15.1-18.82,27.5-39.41,38.14-60.97,3.77-7.6,7.32-15.32,10.68-23.14,9.9.89,49.55-2.19,54.59,4.6l8.91,18.54,16.52,34.42,19.2,26.54,8.66,11.97-156.73-11.94ZM921.81,1901.2c-132.08,31.28-242-56.89-301.5-170.31-10.33-19.73-19.15-40.21-26.29-60.97-11.99-34.83-19.27-70.42-21.13-104.42-6.02-109.88,26.73-211.94,98.09-295.15-32.89,15.27-59.07,58.21-77.11,89.43-9.69,16.79-23.45,52.74-36,64.19-5.33,4.86-18.82,10.19-26.04,15.32-65.87,52.02-136.73,97.2-205.97,144.61.22-30.51,3.16-61.87-1.33-92.29-2.38-16.02-6.35-29.44-23.56-34.17-2.7-3.72,13.05-29.58,16.38-34.48,34.61-50.82,83.02-103.42,121.51-152.85,66.83-85.84,137.81-189.37,210.41-268.67,6.1-6.66,15.59-17.48,24.87-18.66,9.85-1.24,46.63,3.56,56.07,7.28,57.2,39.89,112.99,5.66,131.19-55.18,3.91-12.3,4.25-29.37,8.13-39.78.64-1.7,1.16-2.99,3.14-3.39l209.6-10.94,1.14,28.33c-12.97,3.66-27.67,5.3-41.22,6.25-7.49.53-43.08-2.41-44.05,3.2l21.57,200.08c1.23,3.56,9.1,5.78,12.79,9,17.46,15.23,19.87,49.37-7.89,53.23-18.96,2.63-41.47,1.53-60.75,2.39-24.84,1.09-53.7-.7-78.49,2.08-3.25.36-6.71.45-7.53,4.41,204.99,31.3,295.32,282.9,249.41,480.21-4.89,21.06-11.33,41.49-19.37,60.97-33.64,81.69-95.01,146.66-186.05,170.31ZM1201.45,1797.03c-3.36-.52-16.07-.92-14.43-5.11l20.67-29.4,38.1,39.14c-14.79.2-29.65-2.41-44.33-4.63ZM1329.9,1730.89c-2.72-1.39-5.39-2.88-8.03-4.46l38.75-56.51,20.15-29.39.3,29.39.61,60.97.16,16.38c-18.34-2.58-35.72-7.97-51.93-16.38ZM1463.49,1739.58c-3.47,1.28-19.57,8.44-19.57,2.2v-107.78l26.14,35.92,34.66,47.65c-.58,3.27-10.44,8.64-20.53,13.32-8.68,4.02-17.49,7.49-20.7,8.69Z"/>
    <path class="cls-1" d="M1890.05,526.4c-5.63,35.59-35.97,56.82-71,43.16-15.49-6.03-31.56-19.27-47.15-36.77-22.39-25.15-43.77-59.09-60.97-93.07-19.57-38.63-33.72-77.32-37.8-103.14-5.33-33.75-7.89-104.39,37.8-111.1l.28-.05c21.17,1.64,41.61,10.46,60.68,24.32,78.27,56.82,133.2,198.4,118.15,276.64Z"/>
    <path class="cls-1" d="M187.6,1542.56c41.03,11.92,69.26-26.15,32.66-56.62,57.15,16.58,8.49,94.91-32.66,56.62Z"/>
    <path class="cls-1" d="M1021.88,1382.11c-38.3-66.78-117.43-121.79-196.81-113.36-159.59,16.95-207.2,217.73-179.22,350.08,3.69,17.46,8.99,34.61,15.71,51.1,8.85,21.68,20.15,42.25,33.5,60.97,61.06,85.57,164.86,132.22,271.31,68.98,28.7-17.05,50.76-40.91,67-68.98,10.8-18.7,19.02-39.27,24.92-60.97,25.92-95.36,6.8-212.52-36.41-287.82ZM1043.28,1531.64v34.84l-84.91,2.17v-39.19c2.34-.81,4.78,2.17,5.46,2.17h79.46ZM979.21,1368.4c2.95-.66,21.38,25.42,20.32,28.03l-61.84,72.03c-7.94-10.13-15.38-19.4-27.29-25.11l68.81-74.96ZM832.08,1300.8l23.96-2.17v116.51c0,1.09,3.44,4.58,2.17,7.63h-32.66l6.52-121.96ZM846.94,1450.37c57.87,12.29,89.54,35.22,87.48,99.73-.45,14.04-18.29,78.65-26.87,87.51-17.01,17.6-48.46,11.86-63.31-5.97-13.98-16.77-5.36-15.94-.22-30.36,7.33-20.57,1.78-41.39-5.42-60.92-3.14.28-4.96,8.24-5.53,10.77-3.86,16.7-3.58,34.02-21.23,44.1-101.08,53.56-111.8-179.63,35.11-144.86ZM725.36,1361.8l41.21,66.75-18.31,18.12-48.91-57.67c4.53-2.89,20.74-30.94,26.01-27.2ZM660.08,1562.14v-45.74l51.7,11.86-3.66,30.73-48.04,3.14ZM737.35,1633.97c2.27-2.34,3.8-5.08,7.63-4.33,2.61,11.68,12.29,24.37,21.76,31.58-2.91,2.81-5.82,5.74-8.75,8.71-13.65,13.83-27.68,28.9-42.33,40.35-1.83,1.25-2.28,2.97-5.46,2.11l-14.99-28.94c4.08-4.27,8.02-8.83,11.9-13.52,10.05-12.13,19.7-25.11,30.25-35.95ZM871.27,1759.23c.2,5.49,1,39.82-3.42,40.42-7.46-4.02-33.27.73-35.45-5.91l-2.85-62.86-1.81-40.27h33.75c3.14,1.02,4.66,12.85,5.17,16.6.97,7.05,1.89,15.3,2.67,23.67.91,9.91,1.61,19.96,1.94,28.34ZM1019.09,1691.65l-25.09,35.83-59.23-57.56-11.19-10.88,19.6-27.22,48.33,38.1,27.58,21.73Z"/>
    <path class="cls-1" d="M962.84,964.46c-8.72,3.13-29.86-1.81-36.56,3.72-2.58,2.14-11.58,20.24-17.91,26.73-24.65,25.32-60.93,38.47-95.86,31.5-.02-7.57,10.46-7.5,15.98-11.22,20.49-13.83,35.92-35.83,46.9-57.64,3.06-6.1,5.49-20.98,11.13-23.68l71.58-2.99c1.67,5.64,9.25,30.67,4.75,33.58Z"/>
  </g>
  <path class="cls-1" d="M1360.62,1669.93h-233.39c-4.89,21.06-11.33,41.49-19.37,60.97h222.04c-2.72-1.39-5.39-2.88-8.03-4.46l38.75-56.51ZM1603.79,0H209.12C116.42,0,41.01,75.41,41.01,168.11v1394.67c0,74.44,48.62,137.72,115.77,159.76,16.48,5.42,34.08,8.35,52.34,8.35h209.33c15.1-18.82,27.5-39.41,38.14-60.97h-247.47c-24.61,0-47.32-8.35-65.44-22.37-4.24-3.27-8.24-6.86-11.93-10.74-18.43-19.24-29.78-45.35-29.78-74.03V168.11c0-59.07,48.07-107.14,107.14-107.14h1394.67c44.85,0,83.34,27.7,99.28,66.89,21.43-2.55,43.79.86,66,9.44C1754.56,59.26,1685.97,0,1603.79,0ZM1759.61,620.3c-14.33-11.88-31.5-29.73-48.68-50.13v992.61c0,59.07-48.07,107.14-107.14,107.14h-133.73l34.66,47.65c-.58,3.27-10.44,8.64-20.53,13.32h119.6c36.78,0,70.85-11.88,98.56-32.01,42.11-30.56,69.55-80.18,69.55-136.09v-933.32c-4.21-2.81-8.32-5.86-12.29-9.16ZM1381.06,1669.93l.61,60.97h62.25v-60.97h-62.86ZM991.51,1669.93l27.58,21.73-25.09,35.83-59.23-57.56h-176.78c-13.65,13.83-27.68,28.9-42.33,40.35-1.83,1.25-2.28,2.97-5.46,2.11l-14.99-28.94c4.08-4.27,8.02-8.83,11.9-13.52h-45.54c8.85,21.68,20.15,42.25,33.5,60.97h134.48l-1.81-40.27h33.75c3.14,1.02,4.66,12.85,5.17,16.6.97,7.05,1.89,15.3,2.67,23.67h164.04c10.8-18.7,19.02-39.27,24.92-60.97h-66.78ZM594.01,1669.93h-63.25l16.52,34.42,19.2,26.54h53.82c-10.33-19.73-19.15-40.21-26.29-60.97Z"/>
</svg>