<?xml version="1.0" encoding="UTF-8"?>
<svg id="Camada_1" data-name="Camada 1" xmlns="http://www.w3.org/2000/svg" viewBox="0 0 2130.64 550.61">
  <defs>
    <style>
      .cls-1 {
        fill: #2e2e2e;
      }
    </style>
  </defs>
  <g>
    <g>
      <path class="cls-1" d="M527.69,513.1c-31.65-8.05-64.53-10.46-96.5-17.09,11.09-7.94,19.77-17.6,26.19-28.3,18.57-30.96,18.16-70.64,2.36-102.61-12.8-25.93-35.72-46.78-66.83-53.83l-6.12-60.44-10.16-1.84c-.32-1.43.25-.97.78-1.33,14.83-10.23,31.68-18.95,47.12-28.39,7.85-4.8,14.91-10.72,23.42-14.39h1.22c2.57,2,6.61,3.31,10.56,3.45,3.38.12,6.68-.61,8.93-2.49,1.92-1.6,3.93-7.21,5.5-7.69.78-.13,1.57-.13,2.36-.06,2.33.2,4.7,1.03,6.95.98,11.02-.23,24.66-14.83,30.33-23.63,2.28-3.54,4.15-6.49,2.81-10.97-7.75,17.53-25.95,18.27-40.08,8.82-1.16-.77-2.29-1.61-3.38-2.52-3.95-3.27-8.67-8.19-13.4-13.8-9.17-10.88-18.36-24.37-21.97-33.56-7.59-19.32-13.25-40.65-7.2-61.19l7.81-14.66c-23.63,9.48-26.65,42.53-19.93,64,1.88,6.61,10.85,20.09,4.41,25.68-2.24,1.94-10.1,2.85-12.61.51-1.42-1.32-5.49-12.84-6.19-15.39-2.13-7.66-3.34-19.84-2.82-27.74.36-5.48,2.61-11.01,2.09-16.49-11.48,12.6-9.66,34.08-7.33,49.9.59,3.16,3.46,9.76,3.41,12.21-.01.52-.09.88-.55,1.17-45.66,15.02-89.38,41.92-134.71,58.92l-18.17,9.99c3.39,6.11,8.12,14.42,4.78,21.28l-7.8-13.47c-6.55-8.55-21.18-15.35-31.51-10.57-2.68,1.24,1.35,1.66,2.56,2.35,7.35,4.21,12.8,11.07,15.79,18.98,1.16,3.08,3.42,7.1-1.21,8.1-4.03-11.35-10.01-25.45-23.98-25.77,10.58,7.83,17.2,15.99,17.98,29.68,1.2,21.21-19.91,46.61-34.86,19.88-5.18-9.26-5.72-22.41-1.7-32.17-4.75,1.14-9.35,2.67-13.94,4.34-14.89,5.43-34.53,13.28-48.55,20.38-1.42.71-2.79,3.37-4.69,1.99-7.86-21.41,3.99-42.94,14.41-61.2-4.39-2.69-8.54.84-11.03,4.54-7.39,10.98-15.12,30.8-15.95,44-.88,13.91,3.02,26.48,5.7,39.91.52,2.58,2.68,4.97.59,7.74-2.61,3.47-8.16-.37-10.12-3-8.36-11.25-8.94-34.65-6.77-48.06,2.12-13.04,7.38-25.22,13.02-37.03l-2.87.13c-15.44,17.87-21.22,41.13-20.53,64.34.32,4.36,1.96,6.1-.27,11.07-2.6,5.78-10.88,6.82-13.36.17-2.33-6.23-.65-21.62.75-28.37,1.42-6.83,4.65-15.44,7.6-21.78,1.07-2.3,3.23-4.9,3.21-6.98-14.9,14.79-21.75,34.11-22.96,54.85-.06,1.15.62,2.42.45,4.13-.1,1.01-1.22,4.05-1.83,4.8-1.14,1.39-3.03,1.25-4.45,2.14-1.26.79-3.76,2.63-4.77,3.62-2.56,2.51-8.22,13.16-12.31,8.11-4.51-5.56,1.55-15.47,5.41-20.09-.83-.76-4.53,4.05-5.05,4.83-14.84,24.9,8.06,55.36,34.73,36.54,5.34,7.36,11.77,15.13,21.29,16.5,23.78-28.17,46.46-57.26,68.33-86.95l13.72-.84,1.3,9.78c-.4,1.28-11.72.78-12.95,2.72l-106.92,137.07-13.23,2.66c2.35,4.17,19.42,1.67,20.39,10.47.45,3.87-.25,8.56,0,12.6.38,6.3,1.08,12.25,1.26,18.53.04,1.41,1.47,5.06-.03,6.1l-18.91.86c-6.28-1-12.76-.43-19.02-1.96-2.68-.66-4.58-.82-5.22-3.78-1.93-8.98-.61-18.55-.62-27.5,0-2.14.5-4.44,1.11-6.92-.34-.38-6.7.26-6.93.66-.33.58-.77,3.91-1.1,6.82-.21,1.89,1.54,4.14,1.51,4.81-.43,8.52,1.24,16.62,1.92,25.05,1.58,3.3,2.22,4.84,4.73,5.46.59.15,1.19.32,1.76.55.65.27,1.14,1.14,1.52,2.41,1.42,4.72,3.21,13.52,4.14,16.59.28.94.84,1.88,1.42,2.78,1.58,2.51,3.29,4.85-.28,6.72-1.54.8-3.18.64-4.75,1.24-6.7,2.58-2.31,8.62,2.49,10.16l141.95,25.9c25.74,16.85,55.12,27.51,86.38,22.13h6.58l97.11,10.23,2.85-.2c52.76-12.76,106.93-20.36,159.56-33.46,1.03-.34,2.3-.67,3.15-1.35.26-.21,1.79-2.07.79-2.5ZM421.94,440.85c-.37,5.61-3.09,10.53-5.15,15.59l-15.64-18.85c-1.24-1.84.33-4.55,2.61-3.83l18.18,7.08ZM405.7,404.26l15.61-10.76c1.6,2.72,4.14,24.23,3.28,25.17l-18.01-6.39-.89-8.03ZM399.12,355.73c1.61.09,11.55,13.6,12.81,15.99l-9.82,12.17c-2.47-1.73-1.24-4.86-1.5-7.48-.64-6.31-1.77-12.7-1.98-19.03,0-.28-.62-1.7.48-1.65ZM341.41,459.74l-.14.3c-.31.23-.7.09-1.13-.3-1.65-1.47-3.83-6.49-4.09-7.36-.69-2.38-.97-9.78,1.92-10.33,3.47-.65,8.62.55,12.29-1.19l-8.85,18.88ZM103.9,476.53s0,0,0,0c4.16-5.18,7.57-10.85,10.5-16.78,1.04-2.09,2.01-4.22,2.94-6.37,2.72.25,13.64-.6,15.03,1.27l2.45,5.1,4.55,9.48,5.28,7.31,2.38,3.3-43.15-3.29ZM242.49,523.41c-36.36,8.61-66.62-15.66-83-46.89-2.84-5.43-5.27-11.07-7.24-16.78-3.3-9.59-5.31-19.39-5.82-28.75-1.66-30.25,7.36-58.35,27.01-81.26-9.05,4.2-16.26,16.03-21.23,24.62-2.67,4.62-6.46,14.52-9.91,17.67-1.47,1.34-5.18,2.81-7.17,4.22-18.14,14.32-37.64,26.76-56.7,39.81.06-8.4.87-17.03-.37-25.41-.65-4.41-1.75-8.1-6.49-9.41-.74-1.02,3.59-8.14,4.51-9.49,9.53-13.99,22.86-28.47,33.45-42.08,18.4-23.63,37.94-52.13,57.93-73.97,1.68-1.83,4.29-4.81,6.85-5.14,2.71-.34,12.84.98,15.44,2.01,15.75,10.98,31.11,1.56,36.12-15.19,1.08-3.39,1.17-8.09,2.24-10.95.18-.47.32-.82.87-.93l57.7-3.01.31,7.8c-3.57,1.01-7.62,1.46-11.35,1.72-2.06.15-11.86-.66-12.13.88l5.94,55.08c.34.98,2.5,1.59,3.52,2.48,4.81,4.19,5.47,13.59-2.17,14.65-5.22.72-11.42.42-16.72.66-6.84.3-14.78-.19-21.61.57-.9.1-1.85.12-2.07,1.21,56.43,8.62,81.3,77.88,68.66,132.2-1.35,5.8-3.12,11.42-5.33,16.78-9.26,22.49-26.16,40.38-51.22,46.89ZM319.48,494.73c-.93-.14-4.42-.25-3.97-1.41l5.69-8.1,10.49,10.78c-4.07.06-8.16-.66-12.21-1.27ZM354.84,476.52c-.75-.38-1.48-.79-2.21-1.23l10.67-15.56,5.55-8.09.08,8.09.17,16.78.04,4.51c-5.05-.71-9.83-2.19-14.3-4.51ZM391.62,478.92c-.96.35-5.39,2.32-5.39.61v-29.67l7.2,9.89,9.54,13.12c-.16.9-2.87,2.38-5.65,3.67-2.39,1.11-4.82,2.06-5.7,2.39Z"/>
      <path class="cls-1" d="M509.05,144.92c-1.55,9.8-9.9,15.64-19.55,11.88-4.26-1.66-8.69-5.31-12.98-10.12-6.16-6.92-12.05-16.27-16.78-25.62-5.39-10.63-9.28-21.29-10.41-28.4-1.47-9.29-2.17-28.74,10.41-30.59h.08c5.83.44,11.46,2.87,16.71,6.68,21.55,15.64,36.67,54.62,32.53,76.16Z"/>
      <path class="cls-1" d="M40.36,424.67c11.3,3.28,19.07-7.2,8.99-15.59,15.73,4.57,2.34,26.13-8.99,15.59Z"/>
      <path class="cls-1" d="M270.04,380.5c-10.54-18.39-32.33-33.53-54.18-31.21-43.94,4.67-57.04,59.94-49.34,96.38,1.02,4.81,2.47,9.53,4.33,14.07,2.44,5.97,5.55,11.63,9.22,16.78,16.81,23.56,45.39,36.4,74.69,18.99,7.9-4.7,13.97-11.26,18.45-18.99,2.97-5.15,5.24-10.81,6.86-16.78,7.14-26.25,1.87-58.51-10.02-79.24ZM275.93,421.67v9.59l-23.38.6v-10.79c.65-.22,1.32.6,1.5.6h21.88ZM258.29,376.73c.81-.18,5.89,7,5.59,7.72l-17.03,19.83c-2.19-2.79-4.23-5.34-7.51-6.91l18.94-20.64ZM217.79,358.12l6.6-.6v32.07c0,.3.95,1.26.6,2.1h-8.99l1.79-33.58ZM221.88,399.3c15.93,3.38,24.65,9.7,24.08,27.46-.12,3.86-5.04,21.65-7.4,24.09-4.68,4.85-13.34,3.27-17.43-1.64-3.85-4.62-1.48-4.39-.06-8.36,2.02-5.66.49-11.4-1.49-16.77-.87.08-1.36,2.27-1.52,2.97-1.06,4.6-.99,9.36-5.84,12.14-27.83,14.74-30.78-49.45,9.67-39.88ZM188.4,374.91l11.34,18.38-5.04,4.99-13.47-15.88c1.25-.8,5.71-8.52,7.16-7.49ZM170.43,430.07v-12.59l14.23,3.27-1.01,8.46-13.23.87ZM191.71,449.84c.62-.65,1.05-1.4,2.1-1.19.72,3.21,3.38,6.71,5.99,8.69-.8.77-1.6,1.58-2.41,2.4-3.76,3.81-7.62,7.96-11.65,11.11-.5.34-.63.82-1.5.58l-4.13-7.97c1.12-1.17,2.21-2.43,3.28-3.72,2.77-3.34,5.42-6.91,8.33-9.9ZM228.57,484.33c.06,1.51.28,10.96-.94,11.13-2.05-1.11-9.16.2-9.76-1.63l-.78-17.3-.5-11.09h9.29c.87.28,1.28,3.54,1.42,4.57.27,1.94.52,4.21.74,6.52.25,2.73.44,5.5.53,7.8ZM269.27,465.72l-6.91,9.86-16.31-15.85-3.08-3,5.4-7.49,13.31,10.49,7.59,5.98Z"/>
      <path class="cls-1" d="M253.79,265.52c-2.4.86-8.22-.5-10.07,1.02-.71.59-3.19,5.57-4.93,7.36-6.79,6.97-16.78,10.59-26.39,8.67,0-2.08,2.88-2.07,4.4-3.09,5.64-3.81,9.89-9.86,12.91-15.87.84-1.68,1.51-5.78,3.06-6.52l19.71-.82c.46,1.55,2.55,8.44,1.31,9.24Z"/>
    </g>
    <path class="cls-1" d="M363.3,459.74h-64.25c-1.35,5.8-3.12,11.42-5.33,16.78h61.13c-.75-.38-1.48-.79-2.21-1.23l10.67-15.56ZM430.24,0H46.28C20.76,0,0,20.76,0,46.28v383.96C0,450.74,13.38,468.16,31.87,474.23c4.54,1.49,9.38,2.3,14.41,2.3h57.63c4.16-5.18,7.57-10.85,10.5-16.78H46.28c-6.77,0-13.03-2.3-18.02-6.16-1.17-.9-2.27-1.89-3.28-2.96-5.07-5.3-8.2-12.48-8.2-20.38V46.28c0-16.26,13.23-29.5,29.5-29.5h383.96c12.35,0,22.94,7.63,27.33,18.42,5.9-.7,12.05.24,18.17,2.6-3.99-21.48-22.88-37.8-45.5-37.8ZM473.14,170.77c-3.95-3.27-8.67-8.19-13.4-13.8v273.27c0,16.26-13.23,29.5-29.5,29.5h-36.82l9.54,13.12c-.16.9-2.87,2.38-5.65,3.67h32.93c10.13,0,19.5-3.27,27.13-8.81,11.59-8.41,19.15-22.07,19.15-37.47V173.29c-1.16-.77-2.29-1.61-3.38-2.52ZM368.92,459.74l.17,16.78h17.14v-16.78h-17.3ZM261.68,459.74l7.59,5.98-6.91,9.86-16.31-15.85h-48.67c-3.76,3.81-7.62,7.96-11.65,11.11-.5.34-.63.82-1.5.58l-4.13-7.97c1.12-1.17,2.21-2.43,3.28-3.72h-12.54c2.44,5.97,5.55,11.63,9.22,16.78h37.02l-.5-11.09h9.29c.87.28,1.28,3.54,1.42,4.57.27,1.94.52,4.21.74,6.52h45.16c2.97-5.15,5.24-10.81,6.86-16.78h-18.39ZM152.25,459.74h-17.41l4.55,9.48,5.28,7.31h14.82c-2.84-5.43-5.27-11.07-7.24-16.78Z"/>
  </g>
  <g>
    <g>
      <path class="cls-1" d="M698.52,209.35v93.36c0,1.98-1.53,4.31-5.87,4.31h-92.65v-7.79h19.06V108.39h-19.06v-7.79h63.6v7.79h-22.23v190.83h22.71c25.88,0,25.88-5.45,25.88-7.79v-82.08h8.56Z"/>
      <path class="cls-1" d="M791.06,100.31c-48.35,0-54.55,8.04-54.55,15.03v176.94c0,6.98,6.2,15.02,54.55,15.02s54.55-8.03,54.55-15.02V115.35c0-7-6.19-15.03-54.55-15.03ZM823.29,293.96c0,2.07-4.19,5.54-32.23,5.54s-32.21-3.47-32.21-5.54V113.65c0-2.07,4.19-5.54,32.21-5.54s32.23,3.47,32.23,5.54v180.31Z"/>
      <path class="cls-1" d="M947.69,100.31c-48.36,0-54.56,8.04-54.56,15.03v176.94c0,6.98,6.2,15.02,54.56,15.02s54.53-8.03,54.53-15.02V115.35c0-7-6.19-15.03-54.53-15.03ZM979.91,293.96c0,2.07-4.19,5.54-32.22,5.54s-32.23-3.47-32.23-5.54V113.65c0-2.07,4.19-5.54,32.23-5.54s32.22,3.47,32.22,5.54v180.31Z"/>
      <path class="cls-1" d="M1132.39,247.77v44.52c0,12.41-23.32,15.02-42.91,15.02-13.08,0-24.99-.9-32.88-1.5-2.94-.23-5.36-.42-6.76-.47v1.68h-8.56v-97.67h8.56v79.82c0,4.72,6.88,10.33,39.63,10.33,16.75,0,22.71-2.85,22.71-5.54v-44.8c0-7.45-2.57-12.75-9.48-19.58l-47.58-45.88c-9.43-8.79-12.8-15.99-12.8-27.5v-40.85c0-13.08,26.22-15.03,41.86-15.03,12.26,0,23.91.9,31.63,1.5,3.03.23,5.53.42,6.94.47v-1.68h8.58v94.86h-8.58v-77.02c0-6.65-13.7-10.33-38.57-10.33-15.98,0-21.64,2.99-21.64,5.54v41.14c0,7.45,2.57,12.77,9.46,19.58l47.6,45.9c9.43,8.79,12.78,15.99,12.78,27.5Z"/>
      <path class="cls-1" d="M1258.24,195.46v-79.27c0-2.33,0-7.79-25.89-7.79h-36.45v88.57h11.05c4.3,0,14.24-.38,14.24-3.86v-50.81h8.58v117.4h-8.58v-51.09c0-3.47-9.94-3.84-14.24-3.84h-11.05v94.47h36.45c25.89,0,25.89-5.45,25.89-7.79v-82.08h8.56v93.36c0,1.98-1.53,4.31-5.87,4.31h-106.41v-7.79h19.06V108.39h-19.06v-7.79h106.41c4.34,0,5.87,2.33,5.87,4.33v90.53h-8.56Z"/>
      <path class="cls-1" d="M1395.79,195.46v-77.02c0-6.65-13.32-10.33-37.52-10.33s-26.93,4.25-26.93,5.54v179.47c0,4.3,10.2,6.38,31.16,6.38,29.51,0,33.28-4.61,33.28-8.64v-81.52h8.58v81.52c0,15.15-21.6,16.43-41.86,16.43h-3.17c-34.8,0-50.31-4.55-50.31-14.75V115.35c0-9.97,16.57-15.03,49.25-15.03,11.44,0,22.84.89,30.4,1.47,3.12.26,5.68.45,7.12.5v-1.68h8.58v94.86h-8.58Z"/>
      <path class="cls-1" d="M1537.15,299.22l-38.61-193.92c-.18-2.24-1.79-4.7-7.96-4.7h-41.86v7.79h23.62l-37.29,187.25c-.35,1.49-4.76,3.57-11.16,3.57h-4.81v7.79h56.18v-7.79h-7.99c-17.68,0-22.45-1.61-23.73-2.42l7.84-36.84h55.06l8.2,39.26h-18.31v7.79h56.19v-7.79h-15.38ZM1478.94,119.24l26.22,132.95h-52.46l26.24-132.95Z"/>
      <path class="cls-1" d="M1687.97,100.6v7.79h-5.86c-7.69,0-12.31,1.7-13.19,2.66v191.65c0,1.98-1.53,4.31-5.87,4.31h-6.34c-3.54,0-5.21-1.55-5.72-3.18l-68.85-183.57v176.17c1.38,1.11,7.25,2.79,30.11,2.79h7.99v7.79h-65.72v-7.79h5.87c7.69,0,12.32-1.7,13.19-2.66V108.39h-19.06v-7.79h38.69c3.53,0,5.2,1.55,5.69,3.2l61.46,164.09V111.19c-1.38-1.11-7.25-2.79-30.11-2.79h-7.99v-7.79h65.71Z"/>
      <path class="cls-1" d="M1832.94,100.6v7.79h-5.86c-7.69,0-12.31,1.7-13.19,2.66v191.65c0,1.98-1.53,4.31-5.87,4.31h-6.34c-3.54,0-5.21-1.55-5.72-3.18l-68.85-183.57v176.17c1.38,1.11,7.25,2.79,30.11,2.79h7.99v7.79h-65.72v-7.79h5.87c7.69,0,12.32-1.7,13.19-2.66V108.39h-19.06v-7.79h38.69c3.53,0,5.2,1.55,5.71,3.2l61.44,164.09V111.19c-1.38-1.11-7.25-2.79-30.11-2.79h-7.99v-7.79h65.71Z"/>
      <path class="cls-1" d="M1914.92,100.31c-48.36,0-54.56,8.04-54.56,15.03v176.94c0,6.98,6.2,15.02,54.56,15.02s54.55-8.03,54.55-15.02V115.35c0-7-6.2-15.03-54.55-15.03ZM1947.13,293.96c0,2.07-4.17,5.54-32.21,5.54s-32.23-3.47-32.23-5.54V113.65c0-2.07,4.19-5.54,32.23-5.54s32.21,3.47,32.21,5.54v180.31Z"/>
      <path class="cls-1" d="M2130.31,100.6v7.79h-5.87c-7.69,0-12.3,1.7-13.19,2.66v191.65c0,1.98-1.53,4.31-5.86,4.31h-6.35c-3.53,0-5.21-1.55-5.71-3.18l-68.85-183.57v176.17c1.37,1.11,7.25,2.79,30.11,2.79h7.98v7.79h-65.71v-7.79h5.87c7.69,0,12.3-1.7,13.17-2.66V108.39h-19.04v-7.79h38.67c3.53,0,5.21,1.55,5.71,3.2l61.44,164.09V111.19c-1.38-1.11-7.25-2.79-30.11-2.79h-7.99v-7.79h65.72Z"/>
    </g>
    <g>
      <rect class="cls-1" x="599.67" y="401.85" width="380.5" height="5.28"/>
      <rect class="cls-1" x="1750.14" y="401.85" width="380.5" height="5.28"/>
    </g>
    <g>
      <path class="cls-1" d="M1090.35,410.94c-2.7,0-3.24.54-3.24,3.24v12.22h-4.22l-2.16-6.65c-3.78,4-10.6,8.16-23.09,8.16-16.76,0-30.17-6.38-30.17-20.44s13.41-20.44,30.71-20.44c11.3,0,17.46,2.81,21.52,6.06l1.95-4.54h4.54v13.68h-5.62c-2.7-6.7-10-10.65-21.95-10.65-16.27,0-23.25,6.7-23.25,15.9s7.14,15.9,23.25,15.9c13.41,0,20.38-7.03,20.38-10.6,0-1.3-.81-1.84-2.54-1.84h-10.54v-4.87h27.14v4.87h-2.7Z"/>
      <path class="cls-1" d="M1165.77,426.4h-25.09v-4.54h5.89c2.27,0,2.87-1.57,1.62-3.3l-3.24-4.43h-30.44l-3.3,4.43c-1.35,1.78-.65,3.3,1.62,3.3h5.89v4.54h-23.3v-4.54h1.84c3.57,0,5.14-.81,7.25-3.57l16.81-21.9c1.41-1.84.81-3.3-1.62-3.3h-4.11v-4.54h19.25l21.84,29.74c2.05,2.81,3.68,3.57,7.25,3.57h1.84v4.54ZM1129.81,393.53l-11.95,16.06h23.74l-11.79-16.06Z"/>
      <path class="cls-1" d="M1244.87,418.56c0,2.7,1.08,3.24,3.24,3.24h8v4.54h-29.85v-4.54h7.79c2.16,0,3.24-.54,3.24-3.24v-24.01l-22.6,31.85h-4.97l-22.6-31.85v24.06c0,2.7,1.08,3.24,3.24,3.24h7.25v4.54h-27.14v-4.54h7.46c2.16,0,3.24-.54,3.24-3.24v-22.28c0-2.7-1.08-3.24-3.24-3.24h-7.46v-4.54h20.82l21.84,30.82,21.95-30.82h21.03v4.54h-8c-2.16,0-3.24.54-3.24,3.24v22.22Z"/>
      <path class="cls-1" d="M1295.68,404.94c4.87,0,5.95-1.35,5.95-4.87v-1.78h5.41v17.84h-5.41v-1.78c0-3.51-1.03-4.87-5.95-4.87h-13.52v12.38h28.39c7.03,0,8.22-4.43,8.76-11.46h4.87v16h-60.83v-4.54h8c2.16,0,3.24-.54,3.24-3.24v-22.28c0-2.7-1.08-3.24-3.24-3.24h-8v-4.54h60.29v14.38h-4.87c-.54-6.49-1.73-9.84-8.76-9.84h-27.85v11.84h13.52Z"/>
      <path class="cls-1" d="M1378.62,400.34c-2.32-6-11.95-8.49-22.33-8.49-9.41,0-16.49,2.05-16.49,6.6,0,3.14,3.24,4.6,8.65,5.03l22.71,1.78c7.19.54,15.41,2.49,15.41,9.62,0,8-10.54,13.03-24.22,13.03-8.38,0-18.06-1.89-22.71-5.84l-1.57,4.33h-4.54v-12.6h5.73c2.16,7.08,12.27,9.41,22.44,9.41s17.46-2.38,17.46-6.92c0-2.54-2.27-4.33-7.79-4.76l-22.71-1.84c-7.3-.59-15.79-2.65-15.79-10.38,0-9.19,12.27-12.17,23.3-12.17,9.73,0,17.9,2.38,22.06,5.73l1.57-4.33h4.54v11.79h-5.73Z"/>
      <path class="cls-1" d="M1448.85,404.02c-.54-7.14-1.3-10.92-7.14-10.92h-14.65v25.52c0,2.7,1.08,3.24,3.24,3.24h8v4.54h-30.06v-4.54h8c2.16,0,3.24-.54,3.24-3.24v-25.52h-14.65c-5.84,0-6.6,3.78-7.14,10.92h-4.87v-15.46h60.88v15.46h-4.87Z"/>
      <path class="cls-1" d="M1522.06,393.1c-2.33,0-3.14.54-3.14,3.35v11.46c0,13.19-7.25,20.01-24.55,20.01s-24.55-6.81-24.55-20.01v-11.46c0-2.81-.81-3.35-3.14-3.35h-7.79v-4.54h29.41v4.54h-7.79c-2.33,0-3.14.54-3.14,3.35v10.49c0,11.95,4.81,16.44,17.79,16.44s17.79-5.03,17.79-16.44v-10.49c0-2.81-.81-3.35-3.14-3.35h-6.7v-4.54h25.63v4.54h-6.7Z"/>
      <path class="cls-1" d="M1568.55,388.55c20.01,0,31.9,5.46,31.9,18.65s-11.89,19.19-31.9,19.19h-33.79v-4.54h8c2.16,0,3.24-.54,3.24-3.24v-22.28c0-2.7-.92-3.24-3.24-3.24h-8v-4.54h33.79ZM1568.01,393.1h-14.44v28.76h14.44c16.92,0,24.55-4.06,24.55-14.65s-7.62-14.11-24.55-14.11Z"/>
      <path class="cls-1" d="M1624.29,418.62c0,2.7,1.08,3.24,3.24,3.24h8v4.54h-30.06v-4.54h8c2.16,0,3.24-.54,3.24-3.24v-22.28c0-2.7-1.08-3.24-3.24-3.24h-8v-4.54h30.06v4.54h-8c-2.16,0-3.24.54-3.24,3.24v22.28Z"/>
      <path class="cls-1" d="M1640.67,407.48c0-14.06,13.25-20.44,31.09-20.44s31.09,6.38,31.09,20.44-13.25,20.44-31.09,20.44-31.09-6.38-31.09-20.44ZM1671.76,423.37c16.22,0,23.2-6.7,23.2-15.9s-6.43-15.9-23.2-15.9-23.2,6.7-23.2,15.9,6.97,15.9,23.2,15.9Z"/>
    </g>
  </g>
</svg>