<?xml version="1.0" encoding="UTF-8"?>
<svg id="Camada_1" data-name="Camada 1" xmlns="http://www.w3.org/2000/svg" viewBox="0 0 2000 2000">
  <defs>
    <style>
      .cls-1 {
        fill: #2e2e2e;
      }
    </style>
  </defs>
  <g>
    <path class="cls-1" d="M239.92,619.26v227.34c0,4.83-3.73,10.5-14.3,10.5H0v-18.98h46.41v-464.71H0v-18.98h154.89v18.98h-54.13v464.71h55.3c63.02,0,63.02-13.28,63.02-18.98v-199.88h20.85Z"/>
    <path class="cls-1" d="M465.29,353.73c-117.73,0-132.84,19.57-132.84,36.61v430.88c0,17.01,15.1,36.57,132.84,36.57s132.84-19.57,132.84-36.57v-430.88c0-17.04-15.07-36.61-132.84-36.61ZM543.78,825.32c0,5.05-10.2,13.5-78.49,13.5s-78.45-8.45-78.45-13.5v-439.1c0-5.05,10.2-13.5,78.45-13.5s78.49,8.45,78.49,13.5v439.1Z"/>
    <path class="cls-1" d="M846.72,353.73c-117.77,0-132.87,19.57-132.87,36.61v430.88c0,17.01,15.11,36.57,132.87,36.57s132.8-19.57,132.8-36.57v-430.88c0-17.04-15.07-36.61-132.8-36.61ZM925.17,825.32c0,5.05-10.2,13.5-78.45,13.5s-78.49-8.45-78.49-13.5v-439.1c0-5.05,10.2-13.5,78.49-13.5s78.45,8.45,78.45,13.5v439.1Z"/>
    <path class="cls-1" d="M1296.5,712.81v108.4c0,30.21-56.8,36.57-104.49,36.57-31.86,0-60.86-2.19-80.06-3.66-7.17-.55-13.06-1.02-16.46-1.13v4.1h-20.85v-237.84h20.85v194.39c0,11.48,16.75,25.16,96.52,25.16,40.78,0,55.3-6.95,55.3-13.5v-109.1c0-18.14-6.25-31.05-23.08-47.69l-115.87-111.73c-22.97-21.4-31.16-38.95-31.16-66.97v-99.48c0-31.86,63.86-36.61,101.93-36.61,29.84,0,58.23,2.19,77.02,3.66,7.39.55,13.46,1.02,16.9,1.13v-4.1h20.88v231h-20.88v-187.55c0-16.2-33.35-25.16-93.92-25.16-38.91,0-52.7,7.28-52.7,13.5v100.18c0,18.14,6.25,31.09,23.04,47.69l115.9,111.77c22.97,21.4,31.12,38.95,31.12,66.97Z"/>
    <path class="cls-1" d="M1602.96,585.43v-193.04c0-5.67,0-18.98-63.05-18.98h-88.76v215.68h26.92c10.46,0,34.67-.91,34.67-9.4v-123.73h20.88v285.9h-20.88v-124.42c0-8.45-24.21-9.36-34.67-9.36h-26.92v230.05h88.76c63.05,0,63.05-13.28,63.05-18.98v-199.88h20.85v227.34c0,4.83-3.73,10.5-14.3,10.5h-259.13v-18.98h46.41v-464.71h-46.41v-18.98h259.13c10.57,0,14.3,5.67,14.3,10.53v220.47h-20.85Z"/>
  </g>
  <g>
    <path class="cls-1" d="M211.29,1235.67v-187.55c0-16.2-32.44-25.16-91.36-25.16s-65.58,10.35-65.58,13.5v437.06c0,10.46,24.83,15.54,75.89,15.54,71.87,0,81.05-11.23,81.05-21.03v-198.52h20.88v198.52c0,36.9-52.59,40.01-101.93,40.01h-7.72c-84.74,0-122.52-11.08-122.52-35.92v-431.53c0-24.29,40.34-36.61,119.93-36.61,27.87,0,55.63,2.16,74.03,3.58,7.61.62,13.82,1.1,17.34,1.21v-4.1h20.88v231h-20.88Z"/>
    <path class="cls-1" d="M555.52,1488.35l-94.03-472.24c-.44-5.45-4.35-11.45-19.38-11.45h-101.93v18.98h57.53l-90.81,456c-.84,3.62-11.59,8.7-27.17,8.7h-11.7v18.98h136.82v-18.98h-19.46c-43.05,0-54.68-3.91-57.79-5.89l19.09-89.72h134.08l19.97,95.6h-44.58v18.98h136.82v-18.98h-37.45ZM413.76,1050.05l63.86,323.75h-127.75l63.9-323.75Z"/>
    <path class="cls-1" d="M922.79,1004.67v18.98h-14.26c-18.73,0-29.99,4.13-32.11,6.47v466.72c0,4.83-3.73,10.5-14.3,10.5h-15.43c-8.63,0-12.69-3.77-13.93-7.75l-167.65-447.04v429.01c3.36,2.71,17.67,6.8,73.33,6.8h19.46v18.98h-160.05v-18.98h14.3c18.73,0,29.99-4.13,32.11-6.47v-458.23h-46.41v-18.98h94.21c8.6,0,12.65,3.77,13.86,7.79l149.66,399.6v-381.61c-3.36-2.71-17.67-6.8-73.33-6.8h-19.46v-18.98h160.01Z"/>
    <path class="cls-1" d="M1275.84,1004.67v18.98h-14.27c-18.72,0-29.99,4.13-32.11,6.47v466.72c0,4.83-3.73,10.5-14.3,10.5h-15.43c-8.63,0-12.69-3.77-13.93-7.75l-167.65-447.04v429.01c3.36,2.71,17.67,6.8,73.33,6.8h19.46v18.98h-160.05v-18.98h14.3c18.73,0,29.99-4.13,32.11-6.47v-458.23h-46.41v-18.98h94.21c8.6,0,12.66,3.77,13.9,7.79l149.62,399.6v-381.61c-3.37-2.71-17.67-6.8-73.33-6.8h-19.46v-18.98h160.01Z"/>
    <path class="cls-1" d="M1475.46,1003.97c-117.77,0-132.87,19.57-132.87,36.61v430.88c0,17.01,15.1,36.57,132.87,36.57s132.84-19.57,132.84-36.57v-430.88c0-17.04-15.1-36.61-132.84-36.61ZM1553.91,1475.55c0,5.05-10.17,13.5-78.45,13.5s-78.49-8.45-78.49-13.5v-439.1c0-5.05,10.2-13.5,78.49-13.5s78.45,8.45,78.45,13.5v439.1Z"/>
    <path class="cls-1" d="M2000,1004.67v18.98h-14.3c-18.73,0-29.95,4.13-32.11,6.47v466.72c0,4.83-3.73,10.5-14.26,10.5h-15.47c-8.59,0-12.69-3.77-13.9-7.75l-167.65-447.04v429.01c3.33,2.71,17.67,6.8,73.33,6.8h19.42v18.98h-160.01v-18.98h14.3c18.73,0,29.96-4.13,32.08-6.47v-458.23h-46.38v-18.98h94.18c8.6,0,12.69,3.77,13.9,7.79l149.62,399.6v-381.61c-3.36-2.71-17.67-6.8-73.33-6.8h-19.46v-18.98h160.05Z"/>
  </g>
</svg>